<svg width="26" height="18" viewBox="0 0 26 18" fill="none" xmlns="http://www.w3.org/2000/svg">
<path d="M20.6697 7.91914C20.5336 7.91914 20.3987 7.92557 20.2649 7.93628C20.4204 7.40606 20.505 6.84692 20.505 6.27064C20.505 2.8076 17.5075 -0.000976562 13.8088 -0.000976562C10.3229 -0.000976562 7.45799 2.49588 7.14233 5.68364C6.87586 5.64293 6.60366 5.62366 6.3246 5.62366C3.31559 5.62366 0.875 7.90736 0.875 10.7266C0.875 11.8824 1.28557 12.9482 1.97864 13.8019L4.9602 13.8051V11.7967C4.9602 10.2436 6.31889 8.98066 7.98751 8.98066H20.8276L20.8367 10.1471C20.8321 10.4867 20.8298 11.0994 20.8276 11.8385V13.8223L24.6737 13.8266C24.9482 13.2846 25.1266 12.734 25.1266 12.0934C25.1266 9.79046 23.1321 7.91914 20.6697 7.91914Z" fill="#1BA137"/>
<path d="M19.9685 9.7998C19.9525 9.81373 19.9491 11.2748 19.9479 11.8393V12.0407H5.82812V11.7975C5.82812 10.6964 6.80596 9.7998 7.98281 9.7998H19.9685Z" fill="#1BA137"/>
<path d="M5.82812 12.6592V18.001H18.3125C19.2103 18.001 19.9479 17.3101 19.9479 16.4693V12.6592H5.82812ZM13.1076 14.8443H7.30461V14.6012C7.30461 14.3023 7.56307 14.0592 7.86271 14.0592H12.609C12.888 14.0592 13.1076 14.2648 13.1076 14.5262V14.8443Z" fill="#1BA137"/>
</svg>
