<svg width="20" height="21" viewBox="0 0 20 21" fill="none" xmlns="http://www.w3.org/2000/svg">
<g clip-path="url(#clip0_867_6967)">
<path d="M20 8.78119C19.9503 8.76138 19.8316 8.71942 19.6543 8.72874C19.4885 8.73574 19.273 8.79052 19.0115 8.95021C18.6403 9.19733 18.3329 9.51904 18.1135 9.88738L16.8737 11.9879L16.3495 12.8644C15.6722 13.9974 14.2334 14.4474 13.0077 14.0778L15.8048 9.72886L15.3151 9.46659L12.4923 13.854L12.486 13.8634L12.463 13.8995L12.4923 13.9147V20.0727H10.8023V12.5835H10.8061L10.8023 12.573V12.4658C10.7883 12.4693 10.7742 12.4728 10.7602 12.4751L7.04082 3.8657L6.51276 4.0557L10.1926 12.5707C7.93367 12.826 5.60969 11.6032 4.85204 9.43162L4.26403 7.74727L2.88393 3.71417C2.63648 3.00546 2.22194 2.35271 1.66582 1.80952C1.27168 1.45167 0.915816 1.28965 0.630102 1.2267C0.311224 1.15327 0.0867347 1.19523 0 1.21388L2.35587 0.540142C2.69643 0.442229 3.03571 0.375788 3.375 0.337322C6.18112 0.00278381 8.93112 1.54609 9.8074 4.10233L9.96301 4.56975C9.97194 4.58723 12.1658 10.8001 12.4605 11.6335C12.4809 11.693 12.4923 11.7256 12.4923 11.7256V12.3131C13.1518 11.2162 14.0816 9.67291 14.0867 9.66708L14.2283 9.42346C15.014 8.0923 16.7207 7.50599 18.2372 7.96642C18.4209 8.0212 18.6008 8.09114 18.7781 8.17856L20 8.78119Z" fill="#1BA137"/>
<path d="M16.5497 0.0769282C16.5102 0.0769282 16.3724 0.083922 16.2015 0.179504C16.0586 0.257602 15.8966 0.398644 15.7487 0.652753C15.5484 1.02925 15.4438 1.44539 15.44 1.86502L15.4311 4.25224L15.4209 5.25003C15.4081 6.54272 14.3699 7.55915 13.0982 7.76081L13.3227 2.72059L12.7551 2.69961L12.528 7.79578C12.2716 7.78762 12.0127 7.74449 11.7538 7.66523C11.741 7.66056 11.7296 7.65707 11.7168 7.65357C11.7168 7.65357 11.7729 3.41764 11.7755 3.40599V3.12973C11.7806 1.6179 12.9834 0.364841 14.5574 0.117725C14.7487 0.0862533 14.9438 0.0722656 15.1441 0.0722656L16.5497 0.0769282Z" fill="#1BA137"/>
</g>
<defs>
<clipPath id="clip0_867_6967">
<rect width="20" height="20" fill="white" transform="translate(0 0.0722656)"/>
</clipPath>
</defs>
</svg>
