<svg width="39" height="16" viewBox="0 0 39 16" fill="none" xmlns="http://www.w3.org/2000/svg">
<path d="M7.75374 2.99085C6.82257 2.99085 6.07138 3.54385 5.58623 3.54385C5.07761 3.54385 4.39683 3.02157 3.59086 3.02157C2.05717 3.02157 0.5 4.27349 0.5 6.61604C0.5 8.08302 1.07905 9.6268 1.79112 10.6329C2.39364 11.4701 2.93356 12.1614 3.70041 12.1614C4.45943 12.1614 4.79591 11.6698 5.74273 11.6698C6.69737 11.6698 6.91647 12.146 7.75374 12.146C8.59101 12.146 9.14659 11.401 9.67086 10.6637C10.2499 9.81113 10.5003 8.98164 10.5081 8.94323C10.4612 8.92787 8.86489 8.29039 8.86489 6.49316C8.86489 4.9417 10.1169 4.25045 10.1873 4.19669C9.36569 3.02157 8.10587 2.99085 7.75374 2.99085ZM7.32337 2.00007C7.69897 1.54692 7.96502 0.932481 7.96502 0.310361C7.96502 0.225875 7.95719 0.14139 7.94154 0.0722656C7.3312 0.0953071 6.58 0.471651 6.13398 0.986244C5.78968 1.37795 5.46103 2.00007 5.46103 2.62219C5.46103 2.71435 5.47668 2.8142 5.4845 2.84492C5.52363 2.8526 5.58623 2.86028 5.64883 2.86028C6.2044 2.86028 6.90865 2.49162 7.32337 2.00007Z" fill="black"/>
<path d="M13.584 0.940161V12.0231H15.6028V8.39024H18.0521C20.3369 8.39024 21.9332 6.88486 21.9332 4.68824C21.9332 2.45322 20.3917 0.940161 18.1381 0.940161H13.584ZM15.6028 2.59915H17.606C19.0615 2.59915 19.8831 3.32879 19.8831 4.68824C19.8831 6.00929 19.038 6.74661 17.5982 6.74661H15.6028V2.59915Z" fill="black"/>
<path d="M25.7212 10.6637C24.8604 10.6637 24.2423 10.2412 24.2423 9.53463C24.2423 8.85107 24.7509 8.46704 25.8385 8.39792L27.7713 8.27503V8.94323C27.7713 9.91866 26.8949 10.6637 25.7212 10.6637ZM25.15 12.1614C26.2689 12.1614 27.2079 11.6852 27.6852 10.871H27.8183V12.0231H29.6884V6.28578C29.6884 4.50391 28.4521 3.45168 26.2533 3.45168C24.2188 3.45168 22.8025 4.39638 22.646 5.87872H24.477C24.657 5.31036 25.2673 5.00314 26.1594 5.00314C27.2079 5.00314 27.7713 5.46397 27.7713 6.28578V6.99239L25.5647 7.12296C23.4832 7.24584 22.3173 8.12142 22.3173 9.64216C22.3173 11.1783 23.4989 12.1614 25.15 12.1614Z" fill="black"/>
<path d="M31.8488 15.0723C33.7659 15.0723 34.6814 14.381 35.4091 12.2919L38.5 3.62065H36.4499L34.4545 10.1798H34.3215L32.3183 3.62065H30.1899L33.2494 12.0615L33.1477 12.4302C32.8973 13.2059 32.4357 13.5131 31.614 13.5131C31.481 13.5131 31.1915 13.5054 31.0819 13.4824V15.0415C31.2071 15.0646 31.7314 15.0723 31.8488 15.0723Z" fill="black"/>
</svg>
