<svg width="43" height="17" viewBox="0 0 43 17" fill="none" xmlns="http://www.w3.org/2000/svg">
<path d="M20.1106 8.34988V13.1524H18.5762V1.29297H22.644C23.6749 1.29297 24.554 1.63431 25.2733 2.31698C26.0085 2.99965 26.3761 3.83314 26.3761 4.81746C26.3761 5.82559 26.0085 6.65908 25.2733 7.33381C24.562 8.00854 23.6829 8.34194 22.644 8.34194H20.1106V8.34988ZM20.1106 2.75357V6.88928H22.6759C23.2833 6.88928 23.7948 6.68289 24.1944 6.27805C24.602 5.87321 24.8097 5.38105 24.8097 4.82539C24.8097 4.27767 24.602 3.79345 24.1944 3.38861C23.7948 2.9679 23.2913 2.7615 22.6759 2.7615H20.1106V2.75357Z" fill="black"/>
<path d="M30.3886 4.76953C31.5234 4.76953 32.4185 5.07118 33.0738 5.67447C33.7291 6.27776 34.0568 7.10331 34.0568 8.15113V13.1521H32.5943V12.0249H32.5304C31.899 12.9536 31.0519 13.4141 29.997 13.4141C29.0939 13.4141 28.3427 13.1521 27.7353 12.6202C27.1279 12.0884 26.8242 11.4295 26.8242 10.6357C26.8242 9.79431 27.1439 9.12751 27.7832 8.63535C28.4226 8.13526 29.2777 7.88918 30.3406 7.88918C31.2517 7.88918 32.0029 8.05588 32.5863 8.38928V8.04C32.5863 7.50815 32.3785 7.06362 31.9549 6.69053C31.5314 6.31745 31.0359 6.13487 30.4685 6.13487C29.6134 6.13487 28.9341 6.49208 28.4386 7.21444L27.0879 6.37301C27.8312 5.30138 28.9341 4.76953 30.3886 4.76953ZM28.4066 10.6596C28.4066 11.0565 28.5744 11.3899 28.9181 11.6518C29.2537 11.9138 29.6533 12.0487 30.1088 12.0487C30.7562 12.0487 31.3316 11.8106 31.8351 11.3343C32.3385 10.858 32.5943 10.3023 32.5943 9.65936C32.1148 9.28627 31.4515 9.09576 30.5963 9.09576C29.973 9.09576 29.4535 9.24658 29.0379 9.54029C28.6144 9.84987 28.4066 10.223 28.4066 10.6596Z" fill="black"/>
<path d="M42.4 5.03125L37.2853 16.716H35.7029L37.6049 12.6279L34.2324 5.03125H35.9027L38.3322 10.8578H38.3642L40.7297 5.03125H42.4Z" fill="black"/>
<path d="M14.0069 7.38179C14.0069 6.88487 13.9622 6.40938 13.879 5.95215H7.44727V8.5717L11.1515 8.57249C11.0012 9.44409 10.5177 10.1871 9.77687 10.6824V12.382H11.9818C13.2693 11.1984 14.0069 9.44885 14.0069 7.38179Z" fill="#4285F4"/>
<path d="M9.77738 10.6825C9.16361 11.0937 8.37323 11.3342 7.44858 11.3342C5.66242 11.3342 4.14718 10.1388 3.60454 8.52734H1.33008V10.2801C2.45692 12.5011 4.77293 14.0252 7.44858 14.0252C9.29787 14.0252 10.8515 13.4211 11.9823 12.3813L9.77738 10.6825Z" fill="#34A853"/>
<path d="M3.38989 7.22661C3.38989 6.77414 3.46581 6.33676 3.60407 5.92557V4.17285H1.32961C0.863691 5.09128 0.601562 6.12799 0.601562 7.22661C0.601562 8.32524 0.864491 9.36194 1.32961 10.2804L3.60407 8.52766C3.46581 8.11647 3.38989 7.67908 3.38989 7.22661Z" fill="#FABB05"/>
<path d="M7.44858 3.11873C8.45794 3.11873 9.36181 3.46403 10.0755 4.13876L12.0295 2.1995C10.8427 1.10167 9.29548 0.427734 7.44858 0.427734C4.77373 0.427734 2.45692 1.95184 1.33008 4.1729L3.60454 5.92562C4.14718 4.3142 5.66242 3.11873 7.44858 3.11873Z" fill="#E94235"/>
</svg>
